<?xml version="1.0" encoding="utf-8"?>
<!-- Generator: Adobe Illustrator 16.0.0, SVG Export Plug-In . SVG Version: 6.00 Build 0)  -->
<!DOCTYPE svg PUBLIC "-//W3C//DTD SVG 1.1//EN" "http://www.w3.org/Graphics/SVG/1.1/DTD/svg11.dtd">
<svg version="1.1" id="Layer_1" xmlns="http://www.w3.org/2000/svg" xmlns:xlink="http://www.w3.org/1999/xlink" x="0px" y="0px"
	 width="1000px" height="999.993px" viewBox="0 0 1000 999.993" enable-background="new 0 0 1000 999.993" xml:space="preserve">
<g>
	<path fill="#5A5B5E" d="M1000,499.999c0,276.136-223.858,499.994-500.002,499.994C223.858,999.993,0,776.134,0,499.999
		C0,223.854,223.858,0,499.998,0C776.142,0,1000,223.854,1000,499.999"/>
	<path fill="#09234E" d="M982.531,499.999c0,266.499-216.041,482.525-482.533,482.525c-266.495,0-482.529-216.026-482.529-482.525
		c0-266.492,216.034-482.533,482.529-482.533C766.49,17.465,982.531,233.506,982.531,499.999"/>
	<path fill="#B7B8BD" d="M499.998,50.072c-248.086,0-449.927,201.84-449.927,449.93c0,248.086,201.841,449.926,449.927,449.926
		c248.091,0,449.931-201.84,449.931-449.926C949.929,251.912,748.089,50.072,499.998,50.072 M499.998,665.331
		c-91.162,0-165.333-74.166-165.333-165.329c0-91.166,74.171-165.336,165.333-165.336c91.166,0,165.333,74.171,165.333,165.336
		C665.331,591.165,591.164,665.331,499.998,665.331"/>
	<path fill="#09234E" d="M499.998,83.144c-230.224,0-416.854,186.631-416.854,416.858c0,230.223,186.63,416.854,416.854,416.854
		c230.228,0,416.858-186.631,416.858-416.854C916.856,269.775,730.226,83.144,499.998,83.144 M499.998,698.412
		c-109.579,0-198.405-88.831-198.405-198.41c0-109.583,88.826-198.409,198.405-198.409c109.583,0,198.413,88.827,198.413,198.409
		C698.411,609.581,609.581,698.412,499.998,698.412"/>
</g>
<g>
	<defs>
		<path id="SVGID_1_" d="M301.593,499.999c0-109.583,88.834-198.402,198.405-198.402c109.583,0,198.413,88.819,198.413,198.402
			c0,109.574-88.83,198.413-198.413,198.413C390.427,698.412,301.593,609.573,301.593,499.999 M83.137,499.999
			c0,230.219,186.638,416.857,416.861,416.857c230.228,0,416.858-186.639,416.858-416.857c0-230.22-186.631-416.858-416.858-416.858
			C269.774,83.141,83.137,269.779,83.137,499.999"/>
	</defs>
	<clipPath id="SVGID_2_">
		<use xlink:href="#SVGID_1_"  overflow="visible"/>
	</clipPath>
	<path clip-path="url(#SVGID_2_)" fill="#0C4DA2" d="M4985.177,5442.372c0,2733.55-2215.973,4949.523-4949.522,4949.523
		s-4949.523-2215.973-4949.523-4949.523S-2697.896,492.848,35.654,492.848S4985.177,2708.822,4985.177,5442.372"/>
	<path clip-path="url(#SVGID_2_)" fill="#B9E5FB" d="M4969.649,5442.372c0,2724.975-2209.027,4933.996-4933.995,4933.996
		c-2724.971,0-4933.995-2209.021-4933.995-4933.996c0-2724.967,2209.024-4933.995,4933.995-4933.995
		C2760.622,508.376,4969.649,2717.405,4969.649,5442.372"/>
	<path clip-path="url(#SVGID_2_)" fill="#0C4DA2" d="M4955.676,5442.372c0,2717.256-2202.765,4920.021-4920.021,4920.021
		c-2717.252,0-4920.021-2202.765-4920.021-4920.021c0-2717.249,2202.769-4920.021,4920.021-4920.021
		C2752.911,522.35,4955.676,2725.123,4955.676,5442.372"/>
</g>
<g>
	<defs>
		<path id="SVGID_3_" d="M499.998,916.856c188.102,0,347.097-124.595,398.995-295.743c-72.879-12.958-146.704-24.36-220.651-34.058
			c-32.246,65.939-99.999,111.356-178.344,111.356c-91.317,0-168.222-61.694-191.316-145.673
			c-73.928-4.064-148.315-6.482-223.085-7.233C108.264,754.336,285.147,916.856,499.998,916.856"/>
	</defs>
	<clipPath id="SVGID_4_">
		<use xlink:href="#SVGID_3_"  overflow="visible"/>
	</clipPath>
	<path clip-path="url(#SVGID_4_)" fill="#063374" d="M297.04,866.997c-13.587-6.346-26.143-14.33-37.725-23.845
		c7.04-4.747,15.217-4.193,23.08-4.754c10.133-0.729,20.009-2.32,31.033-6.657c-14.418-5.239-27.982-5.565-41.334-6.635
		c-8.268-0.659-16.646-0.432-24.979,0.576c-9.588,1.153-12.73-2.456-10.801-11.615c2.051-9.72,0.785-11.669-8.886-14.155
		c-6.718-1.722-13.542-0.622-20.305-0.985c-7.01-5.596-13.06-12.124-18.534-19.198c3.916-6.74,10.6-8.454,20.563-4.784
		c6.107,2.244,12.032,4.731,18.603,5.732c17.552,2.684,34.547-1.335,51.728-3.988c-8.477,0.401-16.691-1.698-25.069-2.328
		c-2.685-0.205-6.115-0.463-6.365-4.094c-0.231-3.496,3.09-4.201,5.622-5.262c2.824-1.191,6.164-0.971,8.696-3.003
		c-1.998-9.849-1.273-10.88,8.716-11.198c18.875-0.614,37.656-2.419,56.508-4.814c-20.505-6.665-41.219-11.82-62.896-6.006
		c-15.289,4.095-30.344,9.152-46.474,8.568c-3.408-0.121-7.021,0.272-10.081-1.319c-15.023-7.817-29.479-3.852-43.903,1.759
		c-19.572-23.838-33.455-50.996-46.125-78.867c-13.978-30.738-22.557-63.144-29.039-96.117c-1.66-8.447-7.491-25.233-8.454-33.816
		c3.269-3.154,12.92,5.422,16.886,5.384c40.01-0.447,79.948,1.789,119.909,3.192c27.265,0.955,54.541,1.547,81.768,3.358
		c2.919,0.189,5.489-0.751,8.021-1.919c5.573-0.834,5.475,4.064,6.646,7.128c5.312,13.882,9.993,27.947,17.53,40.966
		c26.586,45.878,64.853,77.381,115.784,91.84c87.189,24.748,176.02-12.631,220.912-87.549c3.23-5.398,1.987-15.574,8.909-18.234
		c10.956-0.873,24.271,5.359,34.931,6.854c38.319,5.346,76.586,11.153,114.738,17.621c1.213,0.212,2.464,0.303,3.662,0.613
		c2.381,0.607,5.171,0.934,5.664,3.951c0.47,2.873-1.676,4.374-3.784,5.814c-1.456,0.994-3.723,0.918-4.474,3.852
		c18.993,5.354,37.971,10.593,57.176,15.073c3.238,0.759,6.877,0.645,9.273,3.624c-9.205,30.775-24.118,58.844-41.216,85.806
		c-3.344,5.284-5.277,11.896-11.631,14.914c-5.239,3.495-10.781,2.101-16.142,0.675c-12.07-3.192-24.285-4.686-36.758-3.958
		c-3.988,0.235-8.105,0.091-11.631,3.587c0.106,5.383,4.564,7.377,8.438,9.575c9.523,5.429,20.244,7.536,30.601,10.661
		c2.928,0.879,6.172,0.947,8.5,3.351c-23.701,30.207-50.58,56.964-83.531,77.154c-1.501,0.925-2.722,2.313-4.071,3.48
		c-5.405-1.357-10.433,0.645-15.513,1.85c-50.98,12.132-101.758,25.135-153.179,35.34c-9.743,1.934-19.531,3.495-29.38,4.754
		c-3.632,0.47-7.378,1.524-10.531-1.714c-0.773-5.648,5.671-6.96,6.899-11.357c-0.614-2.487-2.729-2.494-4.443-2.26
		c-15.035,2.024-30.328,3.336-42.815,13.496c-2.935,2.396-6.327,3.904-9.979,4.838c-21.335,5.398-42.822,10.175-64.12,15.777
		c-4.637,1.221-9.697,2.298-14.645,0.501c-26.317-6.802-52.134-14.99-76.294-27.735c-2.969-4.625,0.985-7.036,4.121-10.038
		C316.435,868.255,306.286,871.379,297.04,866.997"/>
</g>
<g>
	<defs>
		<path id="SVGID_5_" d="M301.593,499.999c0-109.583,88.834-198.402,198.405-198.402c109.583,0,198.413,88.819,198.413,198.402
			c0,109.574-88.83,198.413-198.413,198.413C390.427,698.412,301.593,609.573,301.593,499.999 M83.137,499.999
			c0,230.219,186.638,416.857,416.861,416.857c230.228,0,416.858-186.639,416.858-416.857c0-230.22-186.631-416.858-416.858-416.858
			C269.774,83.141,83.137,269.779,83.137,499.999"/>
	</defs>
	<clipPath id="SVGID_6_">
		<use xlink:href="#SVGID_5_"  overflow="visible"/>
	</clipPath>
	<path clip-path="url(#SVGID_6_)" fill="#FFFFFF" d="M495.782,90.874c6.149-0.193,8.599,3.385,8.78,8.541
		c0.106,3.083-1.6,5.971-4.496,7.4c-1.585,0.785-10.846-9.311-10.808-11.63C489.338,90.4,493.599,92.015,495.782,90.874"/>
	<path clip-path="url(#SVGID_6_)" fill="#FFFFFF" d="M610.377,290.747c0.705-3.199,1.167-6.801,4.929-8.021
		c1.729-0.55,10.6,10.505,10.213,12.594c-0.797,4.257-4.276,3.681-7.317,3.813C612.409,299.379,610.847,295.66,610.377,290.747"/>
	<path clip-path="url(#SVGID_6_)" fill="#FFFFFF" d="M215.499,395.545c2.695,0.747,6.676,0.675,5.94,5.016
		c-0.606,3.579-4.045,4.458-7.198,3.92c-2.848-0.474-7.128-0.914-6.786-4.64C207.812,395.936,211.796,395.375,215.499,395.545"/>
	<path clip-path="url(#SVGID_6_)" fill="#FFFFFF" d="M787.098,464.185c-3.002-0.777-7.066-1.273-7.142-4.75
		c-0.076-3.688,4.041-4.227,7.021-4.31c3.032-0.08,7.097,0.705,7.089,4.177C794.058,462.482,790.26,463.643,787.098,464.185"/>
	<path clip-path="url(#SVGID_6_)" fill="#FFFFFF" d="M651.472,298.492c2.607,1.023,6.922,0.66,6.513,4.697
		c-0.341,3.377-4.192,4.34-7.181,4.325c-3.04-0.007-7.293-1.467-7.188-4.325C643.737,299.671,647.945,298.788,651.472,298.492"/>
	<path clip-path="url(#SVGID_6_)" fill="#FFFFFF" d="M706.736,365.835c2.57,1.069,6.907,0.845,6.611,4.602
		c-0.242,3.067-3.852,4.675-7.044,4.534c-3.298-0.148-7.482-1.141-7.081-5.122C699.526,366.881,703.56,366.222,706.736,365.835"/>
	<path clip-path="url(#SVGID_6_)" fill="#FFFFFF" d="M721.711,230.061c-3.73,0.08-7.249,0.049-7.779-3.927
		c-0.606-4.633,3.685-4.572,6.361-4.618c2.752-0.057,6.748-0.049,6.733,4.394C727.011,229.579,724.235,230.265,721.711,230.061"/>
	<path clip-path="url(#SVGID_6_)" fill="#FFFFFF" d="M569.548,222.251c-0.439,2.096-1.531,3.529-3.67,3.252
		c-1.918-0.258-3.313-1.539-3.191-3.643c0.121-2.15,1.569-3.128,3.639-3.01C568.479,218.964,569.503,220.238,569.548,222.251"/>
	<path clip-path="url(#SVGID_6_)" fill="#FFFFFF" d="M349.943,192.321c-0.095,2.062-1.243,3.446-3.325,3.537
		c-2.164,0.103-3.313-1.395-3.408-3.453c-0.083-1.778,1.213-2.858,2.771-3.105C348.097,188.974,349.416,190.168,349.943,192.321"/>
	<path clip-path="url(#SVGID_6_)" fill="#FFFFFF" d="M359.235,351.354c-0.273,1.831-1.096,3.431-3.311,3.446
		c-2.172,0.026-3.268-1.395-3.282-3.484c-0.008-1.771,1.187-2.858,2.778-3.082C357.532,347.945,358.859,349.048,359.235,351.354"/>
	<path clip-path="url(#SVGID_6_)" fill="#FFFFFF" d="M339.859,152.75c-1.949,0.076-2.711-1.164-2.802-2.809
		c-0.11-1.926,0.318-3.901,2.646-4.037c1.63-0.103,2.805,1.281,3.082,2.839C343.177,150.927,341.747,152.083,339.859,152.75"/>
	<path clip-path="url(#SVGID_6_)" fill="#FFFFFF" d="M459.602,173.552c1.547,0.178,3.29,0.341,3.465,2.275
		c0.201,2.267-1.464,3.188-3.419,3.461c-1.76,0.243-2.965-0.599-3.253-2.407C456,174.42,457.429,173.605,459.602,173.552"/>
	<path clip-path="url(#SVGID_6_)" fill="#FFFFFF" d="M646.899,178.215c1.986,0.023,3.002,1.281,3.139,3.306
		c0.121,1.661-0.75,3.014-2.274,3.431c-2.115,0.583-3.541-0.743-3.813-2.692C643.677,180.364,644.603,178.795,646.899,178.215"/>
	<path clip-path="url(#SVGID_6_)" fill="#FFFFFF" d="M807.228,505.28c1.972-0.031,3.678,0.341,3.39,2.861
		c-0.183,1.631-1.198,2.775-2.881,2.844c-1.927,0.076-3.807-0.773-4.064-2.715C803.384,506.026,805.34,505.465,807.228,505.28"/>
	<path clip-path="url(#SVGID_6_)" fill="#FFFFFF" d="M294.682,367.961c-0.436,2.226-1.96,3.188-3.938,3.01
		c-2.29-0.216-2.942-2.119-2.623-4.015c0.258-1.528,1.467-2.714,3.275-2.529C293.483,364.637,294.663,365.824,294.682,367.961"/>
	<path clip-path="url(#SVGID_6_)" fill="#FFFFFF" d="M189.709,262.227c-0.526,1.793-1.296,3.423-3.507,3.332
		c-2.059-0.087-3.324-1.391-3.354-3.377c-0.03-1.748,1.35-2.51,2.987-2.585C187.761,259.494,189.425,259.873,189.709,262.227"/>
	<path clip-path="url(#SVGID_6_)" fill="#FFFFFF" d="M487.519,119.962c-0.209,1.915-1.555,2.593-3.185,2.601
		c-1.956,0.015-3.863-0.554-3.749-2.983c0.087-1.698,1.569-2.669,3.161-2.824C485.941,116.535,487.06,117.942,487.519,119.962"/>
	<path clip-path="url(#SVGID_6_)" fill="#FFFFFF" d="M859.036,402.171c0.311,2.233-0.729,3.283-2.479,3.359
		c-1.774,0.087-3.936,0.212-4.367-2.218c-0.334-1.873,1.228-2.783,2.684-3.208C856.913,399.506,858.46,400.314,859.036,402.171"/>
	<path clip-path="url(#SVGID_6_)" fill="#FFFFFF" d="M665.778,367.492c-0.318,2.176-0.606,4.17-3.191,3.711
		c-1.82-0.319-2.268-2.001-2.184-3.526c0.113-1.892,0.856-3.662,3.268-3.416C665.824,364.489,665.309,366.453,665.778,367.492"/>
	<path clip-path="url(#SVGID_6_)" fill="#FFFFFF" d="M165.353,407.551c-0.193,1.815-1.069,3.066-2.609,3.431
		c-2.023,0.481-3.616-0.443-4.067-2.525c-0.387-1.759,0.777-2.904,2.385-3.211C163.055,404.871,164.507,405.849,165.353,407.551"/>
	<path clip-path="url(#SVGID_6_)" fill="#FFFFFF" d="M218.392,371.226c-2.119-0.614-2.991-2.221-2.688-4.208
		c0.242-1.577,1.342-2.949,3.177-2.65c2.202,0.36,3.01,2.089,2.653,4.117C221.262,370.054,220.283,371.271,218.392,371.226"/>
	<path clip-path="url(#SVGID_6_)" fill="#FFFFFF" d="M244.314,313.708c-0.155,2.04-0.595,3.704-2.483,3.602
		c-1.963-0.102-3.438-1.406-3.252-3.563c0.178-2.089,1.668-3.268,3.703-3.104C244.349,310.805,244.011,312.738,244.314,313.708"/>
	<path clip-path="url(#SVGID_6_)" fill="#FFFFFF" d="M677.697,309.22c-1.903-0.667-3.427-1.934-2.646-4.007
		c0.454-1.179,2.069-2.646,3.207-2.696c2.57-0.121,2.373,2.309,2.313,4.007C680.518,308.102,679.729,309.452,677.697,309.22"/>
	<path clip-path="url(#SVGID_6_)" fill="#FFFFFF" d="M888.849,503.407c0.144,1.547-0.933,2.551-2.723,2.452
		c-1.638-0.091-2.965-1.016-2.934-2.911c0.03-2.149,1.228-3.594,3.381-3.431C888.424,499.649,888.811,501.34,888.849,503.407"/>
	<path clip-path="url(#SVGID_6_)" fill="#FFFFFF" d="M337.797,317.128c-1.406-0.637-2.794-1.88-2.188-4.007
		c0.425-1.513,1.778-2.688,3.4-2.547c2.601,0.228,2.313,2.438,2.135,4.162C340.981,316.283,340.345,317.78,337.797,317.128"/>
	<path clip-path="url(#SVGID_6_)" fill="#FFFFFF" d="M710.474,527.688c-1.887-0.038-2.889-1.273-3.07-2.859
		c-0.242-2.001,0.516-3.806,2.828-3.987c1.752-0.137,2.949,1.084,3.132,2.752C713.599,525.648,712.628,527.172,710.474,527.688"/>
	<path clip-path="url(#SVGID_6_)" fill="#FFFFFF" d="M435.149,253.849c2.445,0.129,2.965,1.49,3.025,3.089
		c0.08,1.907-0.186,3.882-2.715,3.625c-1.475-0.148-2.873-1.104-2.983-2.919C432.352,255.438,434.031,254.657,435.149,253.849"/>
	<path clip-path="url(#SVGID_6_)" fill="#FFFFFF" d="M527.574,249.152c-0.667,3.097-2.282,3.158-3.829,2.912
		c-1.698-0.273-2.873-1.437-2.472-3.208c0.493-2.111,2.138-3.014,4.224-2.369C527.226,247.018,527.681,248.492,527.574,249.152"/>
	<path clip-path="url(#SVGID_6_)" fill="#FFFFFF" d="M209.445,252.249c-2.142,0.053-3.533-0.777-3.549-2.475
		c-0.015-1.941,1.236-3.393,3.333-3.511c1.743-0.083,2.831,1.148,3.082,2.703C212.675,251.309,211.091,252.101,209.445,252.249"/>
	<path clip-path="url(#SVGID_6_)" fill="#FFFFFF" d="M170.258,486.028c1.638,0.402,2.688,1.342,2.718,3.135
		c0.03,1.873-1.054,2.976-2.756,2.858c-1.527-0.103-2.919-1.023-2.858-2.912C167.426,487.302,168.737,486.533,170.258,486.028"/>
	<path clip-path="url(#SVGID_6_)" fill="#FFFFFF" d="M331.716,392.224c1.638,2.639,2.623,5.046-1.964,5.437
		c-1.713-0.694-3.624-1.475-2.702-3.784C327.856,391.86,329.79,391.75,331.716,392.224"/>
	<path clip-path="url(#SVGID_6_)" fill="#FFFFFF" d="M309.183,224.75c-0.125,1.706-1.184,3.229-3.146,3.533
		c-1.903,0.284-2.506-1.297-2.624-2.912c-0.147-2.051,0.63-3.814,2.825-3.852C307.712,221.497,309.05,222.573,309.183,224.75"/>
	<path clip-path="url(#SVGID_6_)" fill="#FFFFFF" d="M507.989,122.896c-1.637-0.303-2.903-0.985-2.857-2.926
		c0.045-1.699,0.758-3.185,2.479-3.386c2.236-0.273,3.328,1.236,3.359,3.34C511,121.816,509.491,122.408,507.989,122.896"/>
	<path clip-path="url(#SVGID_6_)" fill="#FFFFFF" d="M658.105,254.937c-0.433,1.668-1.418,2.942-3.192,2.547
		c-1.834-0.406-3.586-1.429-2.949-3.806c0.5-1.869,2.236-1.816,3.754-1.778C657.673,251.95,658.303,253.144,658.105,254.937"/>
	<path clip-path="url(#SVGID_6_)" fill="#FFFFFF" d="M800.063,290.682c0.121,1.414-0.364,2.806-2.237,2.999
		c-1.63,0.163-3.063-0.542-3.222-2.343c-0.183-1.99,0.803-3.738,2.782-3.984C799.184,287.126,799.722,288.881,800.063,290.682"/>
	<path clip-path="url(#SVGID_6_)" fill="#FFFFFF" d="M568.767,286.671c0.152,1.687-0.182,3.192-2.168,3.302
		c-1.615,0.091-3.139-0.534-3.367-2.377c-0.25-2.111,0.994-3.704,2.928-3.988C568.031,283.32,568.54,285.09,568.767,286.671"/>
</g>
<g>
	<path fill="#09234E" d="M500.006,802.792c-166.967,0-302.798-135.831-302.798-302.798c0-166.963,135.831-302.794,302.798-302.794
		c166.963,0,302.794,135.832,302.794,302.794C802.8,666.961,666.969,802.792,500.006,802.792"/>
	<path fill="#B7B8BD" d="M499.998,212.732c158.661,0,287.267,128.609,287.267,287.267c0,158.652-128.605,287.266-287.267,287.266
		c-158.653,0-287.267-128.613-287.267-287.266C212.731,341.341,341.345,212.732,499.998,212.732 M499.998,181.676
		c-175.519,0-318.322,142.799-318.322,318.322c0,175.516,142.804,318.322,318.322,318.322
		c175.523,0,318.322-142.807,318.322-318.322C818.32,324.475,675.521,181.676,499.998,181.676"/>
	<path fill="#FFFFFF" d="M746.003,499.999H253.997c0,135.861,110.14,246.005,246.001,246.005
		C635.868,746.003,746.003,635.86,746.003,499.999"/>
	<path fill="#ED1C24" d="M746.003,499.999c0-135.862-110.135-246.009-246.005-246.009c-135.861,0-246.001,110.147-246.001,246.009
		h246.001H746.003z"/>
	<rect x="244.963" y="480.596" fill="#08224E" width="511.929" height="41.488"/>
	<path fill="#FFFFFF" d="M500.006,592.18c-50.833,0-92.186-41.353-92.186-92.186c0-50.822,41.353-92.182,92.186-92.182
		c50.822,0,92.167,41.36,92.167,92.182C592.173,550.828,550.828,592.18,500.006,592.18"/>
	<path fill="#08224E" d="M499.998,419.773c44.31,0,80.226,35.916,80.226,80.226c0,44.301-35.916,80.217-80.226,80.217
		c-44.309,0-80.225-35.916-80.225-80.217C419.773,455.689,455.689,419.773,499.998,419.773 M499.998,395.863
		c-57.422,0-104.139,46.713-104.139,104.135c0,57.418,46.717,104.131,104.139,104.131c57.427,0,104.132-46.713,104.132-104.131
		C604.13,442.576,557.425,395.863,499.998,395.863"/>
</g>
</svg>
